HIERARCHY
ROOT hip
{
	OFFSET 0.000000 0.000000 0.000000 
	CHANNELS 6 Xposition Yposition Zposition Xrotation Zrotation Yrotation
	JOINT abdomen
	{
		OFFSET 0.000000 3.402643 0.000000 
		CHANNELS 3 Xrotation Zrotation Yrotation
		JOINT chest
		{
			OFFSET 0.000000 8.438565 -0.680529 
			CHANNELS 3 Xrotation Zrotation Yrotation
			JOINT neck
			{
				OFFSET 0.000000 10.207942 -0.272212 
				CHANNELS 3 Xrotation Zrotation Yrotation
				JOINT head
				{
					OFFSET 0.000000 3.130431 0.000000 
					CHANNELS 3 Xrotation Zrotation Yrotation
					End Site
					{
						OFFSET 0.000000 3.130435 0.000000 
					}
				}
			}
			JOINT lCollar
			{
				OFFSET 3.470700 6.669187 -0.816635 
				CHANNELS 3 Yrotation Zrotation Xrotation
				JOINT lShldr
				{
					OFFSET 3.198488 0.000000 0.000000 
					CHANNELS 3 Zrotation Yrotation Xrotation
					JOINT lForeArm
					{
						OFFSET 10.139888 0.000000 0.000000 
						CHANNELS 3 Yrotation Zrotation Xrotation
						JOINT lHand
						{
							OFFSET 8.370511 0.000000 0.000000 
							CHANNELS 3 Zrotation Yrotation Xrotation
							End Site
							{
								OFFSET 4.083176 0.000000 0.000000 
							}
						}
					}
				}
			}
			JOINT rCollar
			{
				OFFSET -3.470700 6.669187 -0.816635 
				CHANNELS 3 Yrotation Zrotation Xrotation
				JOINT rShldr
				{
					OFFSET -3.198488 0.000000 0.000000 
					CHANNELS 3 Zrotation Yrotation Xrotation
					JOINT rForeArm
					{
						OFFSET -10.139888 0.000000 0.000000 
						CHANNELS 3 Yrotation Zrotation Xrotation
						JOINT rHand
						{
							OFFSET -8.370511 0.000000 0.000000 
							CHANNELS 3 Zrotation Yrotation Xrotation
							End Site
							{
								OFFSET -4.083176 0.000000 0.000000 
							}
						}
					}
				}
			}
		}
	}
	JOINT lThigh
	{
		OFFSET 5.308129 -1.633274 1.361059 
		CHANNELS 3 Xrotation Zrotation Yrotation
		JOINT lShin
		{
			OFFSET -2.041588 -20.007561 0.000000 
			CHANNELS 3 Xrotation Zrotation Yrotation
			JOINT lFoot
			{
				OFFSET 0.000000 -19.190928 -1.224953 
				CHANNELS 3 Xrotation Yrotation Zrotation
				End Site
				{
					OFFSET 0.000000 -2.449906 4.627600 
				}
			}
		}
	}
	JOINT rThigh
	{
		OFFSET -5.308129 -1.633274 1.361059 
		CHANNELS 3 Xrotation Zrotation Yrotation
		JOINT rShin
		{
			OFFSET 2.041588 -20.007561 0.000000 
			CHANNELS 3 Xrotation Zrotation Yrotation
			JOINT rFoot
			{
				OFFSET 0.000000 -19.190928 -1.224953 
				CHANNELS 3 Xrotation Yrotation Zrotation
				End Site
				{
					OFFSET 0.000000 -2.449906 4.627600 
				}
			}
		}
	}
}
MOTION
Frames: 6
Frame Time: 0.033333
0.059581 45.277397 -0.023308 0.617169 15.155411 86.930977 0.000000 0.000000 0.000000 20.559349 -3.127562 4.901538 24.283907 1.971063 0.034439 -30.238630 3.425439 6.523089 -11.404574 8.517669 25.000000 -86.881500 -3.103812 -3.333948 -40.656727 5.768626 71.231377 -14.436882 1.797772 -59.180878 -5.137123 -6.709580 24.012571 68.759499 11.267120 69.522827 29.135098 -33.776474 25.400539 33.889206 -7.607945 -80.914948 39.686852 1.856106 14.103761 5.583822 2.217399 0.930323 5.791269 -13.489070 5.026248 37.924740 -5.751112 -0.794106 7.769201 0.896293 -0.020577 11.594566 5.276382 1.019445 
0.137436 45.516300 -0.050756 0.617254 15.184708 87.331680 0.000000 0.000000 0.000000 20.401243 -3.048370 4.930908 24.104393 2.320629 0.065861 -29.971918 3.162784 6.484282 -11.388688 9.946436 25.000000 -87.900826 -2.861724 -2.779856 -41.321526 4.826378 72.573090 -15.679361 1.980582 -59.128094 -5.597516 -7.662389 23.844852 70.717636 11.830314 70.576515 26.865168 -32.709351 23.668932 33.626751 -7.446021 -80.897591 39.567352 2.286180 14.289940 6.034280 2.325275 0.925523 8.953959 -15.018216 1.351203 38.005032 -5.956789 -0.847937 7.774622 1.326374 0.069522 11.257970 4.534455 -2.569216 
0.005726 45.695686 -0.057003 0.462919 13.974171 87.554604 0.000000 0.000000 0.000000 19.369766 -2.800988 5.050667 23.786095 2.540003 0.082707 -29.794241 2.894565 6.360982 -11.760835 10.249610 25.000000 -88.042175 -2.937292 -2.702334 -41.574280 4.358840 72.380753 -15.493432 1.714534 -59.023701 -5.867103 -8.249842 23.731503 70.114578 10.946750 70.396263 30.688959 -34.062805 27.856739 34.110855 -6.373940 -80.852081 37.432915 2.746494 14.840826 7.138687 3.017428 1.024968 11.423339 -17.604410 -1.845697 36.511055 -5.957272 -0.860995 7.924964 1.424556 0.111211 13.257419 6.335412 1.977514 
-0.088129 45.798344 -0.031388 0.120471 13.408175 87.324356 0.000000 0.000000 0.000000 18.954321 -2.503174 5.136718 23.539570 2.437439 0.078430 -29.906406 3.004892 6.615551 -11.502696 10.095702 25.000000 -87.820808 -2.720782 -2.819061 -42.098057 4.158286 72.501839 -15.218771 1.188298 -58.876102 -5.664781 -8.558784 23.730337 69.677376 10.589677 70.208214 33.436291 -35.306206 31.749510 34.171532 -5.288918 -80.766411 36.435413 3.332186 15.255506 7.700903 3.137141 0.994574 12.198378 -18.795694 -3.467409 35.509102 -5.770350 -0.819974 8.383151 1.229506 0.084659 13.790292 7.810886 3.707451 
-0.106327 45.773090 0.003975 -0.271126 13.466652 86.921013 0.000000 0.000000 0.000000 19.038095 -2.206450 5.195694 23.448744 2.286673 0.062470 -30.215521 3.136805 6.951810 -10.894042 9.704058 25.000000 -87.513031 -2.304385 -2.993773 -42.753063 4.275905 72.921509 -14.556371 0.482944 -58.737167 -5.188171 -8.575624 23.800863 69.187157 10.317286 69.970825 35.613815 -36.651585 35.174015 33.832001 -4.571353 -80.646561 36.454166 3.906878 15.471601 7.809084 2.510032 0.863941 10.967861 -18.129635 -2.908754 35.228016 -5.448523 -0.720843 8.951002 0.848970 0.050543 13.230788 8.849178 3.345573 
-0.016794 45.691399 -0.013090 -0.191628 14.472578 86.955582 0.000000 0.000000 0.000000 19.919678 -2.341418 5.118515 23.665955 2.400611 0.078166 -30.510263 2.934029 7.001717 -10.827779 9.026074 25.000000 -87.034973 -1.996775 -3.256165 -42.870129 4.672627 72.895889 -13.821206 0.152682 -58.731689 -4.990021 -7.911634 23.911121 68.300545 10.021686 69.487022 36.444195 -37.250126 36.041061 33.322945 -4.774768 -80.592644 37.765331 3.752189 15.171840 7.400225 2.059933 0.781087 9.302014 -16.915337 -0.930575 36.438965 -5.487378 -0.733943 8.925638 0.691557 0.030146 12.626291 8.716980 1.770750 
